<svg width="77" height="40" viewBox="0 0 77 40" fill="none" xmlns="http://www.w3.org/2000/svg">
<path d="M24.2667 20.7333L33.4 40L0 20.7333H24.2667ZM33.4 0L0 19.2667H24.2667L33.4 0ZM29 20C29 16.2667 31.2 13.0667 34.3333 11.5333V1.46667L25.5333 20L34.2667 38.5333V28.4667C31.2 26.9333 29 23.7333 29 20ZM38.3333 12.1333C37.4 12.1333 36.5333 12.2667 35.7333 12.6C35.2 12.8 34.7333 13 34.2667 13.2667C31.9333 14.6667 30.4 17.2 30.4 20.0667C30.4 22.9333 31.9333 25.4667 34.2667 26.8667C34.7333 27.1333 35.2 27.3333 35.7333 27.5333C36.5333 27.8 37.4 28 38.3333 28C39.2667 28 40.1333 27.8667 40.9333 27.5333C41.4667 27.3333 41.9333 27.1333 42.4 26.8667C44.7333 25.4667 46.2667 22.9333 46.2667 20.0667C46.2667 17.2 44.7333 14.6667 42.4 13.2667C41.9333 13 41.4667 12.8 40.9333 12.6C40.1333 12.2667 39.2667 12.1333 38.3333 12.1333ZM52.4667 20.7333H76.7333L43.3333 40L52.4667 20.7333ZM76.7333 19.2667L43.3333 0L52.4 19.2667H76.7333ZM47.7333 20C47.7333 23.7333 45.5333 26.9333 42.4 28.4667V38.6L51.2 20L42.4 1.46667V11.6C45.5333 13.0667 47.7333 16.2667 47.7333 20Z" fill="url(#paint0_linear_310_859)"/>
<defs>
<linearGradient id="paint0_linear_310_859" x1="76.6667" y1="40" x2="2.28484e-06" y2="40" gradientUnits="userSpaceOnUse">
<stop stop-color="#05DAC5"/>
<stop offset="0.358541" stop-color="#5C6AF3"/>
<stop offset="0.49899" stop-color="#8F74D9"/>
<stop offset="0.649125" stop-color="#CC42D3"/>
<stop offset="1" stop-color="#FC176F"/>
</linearGradient>
</defs>
</svg>
